<svg xmlns="http://www.w3.org/2000/svg" viewBox="0 0 512 512">
  <path fill="#e1f1fa" d="M15 45h482v301H15z"/>
  <path fill="#bfe1ff" d="M256 45h241v301H256z"/>
  <path d="M359.5 430.401l-30-61C326.8 364.3 321.7 361 316 361H196c-5.7 0-10.8 3.3-13.5 8.401l-30 61c-2.1 4.499-2.1 10.199.601 14.399 2.999 4.499 7.8 7.2 12.9 7.2h180c5.099 0 9.901-2.701 12.9-7.2 2.7-4.2 2.7-9.9.599-14.399z" fill="#0053bf"/>
  <path d="M359.5 430.401c2.1 4.499 2.1 10.199-.601 14.399-2.999 4.499-7.8 7.2-12.9 7.2h-90v-91h60c5.7 0 10.8 3.3 13.5 8.401l30.001 61z" fill="#05377f"/>
  <g fill="#65b1fc">
    <path d="M256 121c-24.901 0-45 20.099-45 45v60c0 24.901 20.099 45 45 45s45-20.099 45-45v-60c0-24.901-20.099-45-45-45zm15 105c0 8.401-6.599 15-15 15s-15-6.599-15-15v-60c0-8.401 6.599-15 15-15s15 6.599 15 15v60zM166 151c-8.291 0-15 6.709-15 15v15h-15c-8.276 0-15-6.724-15-15v-30c0-8.291-6.709-15-15-15s-15 6.709-15 15v30c0 24.814 20.186 45 45 45h15v45c0 8.291 6.709 15 15 15s15-6.709 15-15v-90c0-8.291-6.709-15-15-15z"/>
  </g>
  <path d="M406 151c-8.291 0-15 6.709-15 15v15h-15c-8.276 0-15-6.724-15-15v-30c0-8.291-6.709-15-15-15s-15 6.709-15 15v30c0 24.814 20.186 45 45 45h15v45c0 8.291 6.709 15 15 15s15-6.709 15-15v-90c0-8.291-6.709-15-15-15z" fill="#1689fc"/>
  <path d="M464.299 30h-421.7L0 60v271l49.799 30h403.7l58.5-30V60l-47.7-30zM482 331H30V60h452v271z" fill="#0053bf"/>
  <path d="M301 166v60c0 24.901-20.099 45-45 45v-30c8.401 0 15-6.599 15-15v-60c0-8.401-6.599-15-15-15v-30c24.901 0 45 20.099 45 45z" fill="#1689fc"/>
  <path fill="#05377f" d="M512 60v271l-58.5 30H256v-30h226V60H256V30h208.299z"/>
  <path d="M467 0H45C20.099 0 0 20.099 0 45v15h512V45c0-24.901-20.099-45-45-45z" fill="#2864f0"/>
  <path d="M512 45v15H256V0h211c24.901 0 45 20.099 45 45z" fill="#0053bf"/>
  <g fill="#2864f0">
    <path d="M0 331v15c0 24.901 20.099 45 45 45h422c24.901 0 45-20.099 45-45v-15H0zM346 422H166c-20.4 0-39 7.8-52.8 21.899C98.8 458 91 476.6 91 497c0 8.401 6.599 15 15 15h300c8.401 0 15-6.599 15-15 0-41.4-33.6-75-75-75z"/>
  </g>
  <g fill="#0053bf">
    <path d="M421 497c0 8.401-6.599 15-15 15H256v-90h90c41.4 0 75 33.6 75 75zM256 331h256v15c0 24.901-20.099 45-45 45H256v-60z"/>
  </g>
</svg>
