<svg xmlns="http://www.w3.org/2000/svg" width="187.338" height="187.338" viewBox="0 0 187.338 187.338">
  <path d="M125.393 95.594c-1.629-1.183-4.344.387-4.153 2.383.652 6.86 1.787 13.168 1.565 20.185-.251 7.964-1.063 15.911-1.226 23.877-14.855.447-29.671-.884-44.524-.893.548-32.136.552-64.361.547-96.382 0-2.468-2.462-3.305-4.204-2.567-.007-.009-.009-.019-.016-.028-6.534-8.158-20.93-12.415-30.032-17.155-10.284-5.356-20.33-11.38-28.984-19.109C29.993 6.991 45.488 9.237 61.11 10.38c20.147 1.476 40.181-2.192 60.287.449.518 6.438.365 12.828-.014 19.278-.349 5.936-1.441 12.691.889 18.304 1.24 2.988 5.073 2.447 5.488-.743.849-6.529.191-13.542.533-20.172.301-5.837.205-11.53-1.437-17.124 1.855-1.582 2.002-4.969-1.022-5.523-17.917-3.283-36.129-1.422-54.217-1.02C50.938 4.288 30.471-1.66 9.832.759c-.165.019-.287.09-.434.131-.927-1.052-2.815-1.014-3.527.748-9.284 23.017-5.076 49.963-3.882 74.09 1.189 24.004-2.432 48.698 3.473 72.267.334 1.331 1.294 1.836 2.277 1.791 16.22 17.971 41.909 25.269 62.465 36.951 1.38.784 2.673.392 3.536-.462 1.089.029 2.159-.679 2.215-2.184.469-12.607.787-25.254 1.027-37.913 15.939 2.026 31.894 3.255 47.981 2.666 1.931-.071 3.39-1.52 3.453-3.454.336-9.966 1.327-19.894 1.514-29.866.116-5.994.97-15.934-4.537-19.93zM34.15 26.722c11.063 6.375 24.699 15.941 36.992 19.295.197.054.373.051.553.061-.014 1.85-.069 3.715-.113 5.575-7.436-7.919-18.397-13.08-27.733-18.077-12.09-6.472-24.151-12.336-35.206-20.547.195-1.863.379-3.724.635-5.595 6.425 8.392 15.677 13.99 24.872 19.288zM7.324 51.238c21.446 9.495 42.479 19.029 61.443 33.057.655.485 1.36.408 1.942.066-.11 3.016-.222 6.032-.333 9.051C49.454 81.06 27.935 69.847 7.444 56.701c-.047-1.825-.086-3.644-.12-5.463zm.19 8.152c19.922 13.94 40.71 27.935 62.701 38.383-.044 1.224-.091 2.446-.135 3.671C50.492 87.807 29.879 75.583 8.315 65.333c-.225-.107-.439-.098-.629-.038-.06-1.974-.117-3.941-.172-5.905zM8 75.724c-.082-2.952-.173-5.887-.264-8.812C28.97 78.451 48.912 91.839 68.768 105.58c.404.279.792.345 1.161.326-.067 1.998-.145 3.994-.205 5.992C49.528 99.635 28.578 88.526 8.016 76.89c-.01-.39-.007-.777-.016-1.166zm.046 3.247c20.365 12.666 40.318 26.282 61.537 37.479-.025.942-.065 1.885-.087 2.827-20.348-11.091-41.51-20.35-61.335-32.464-.014-2.61-.065-5.227-.115-7.842zm.13 15.702c.003-1.933-.006-3.868-.012-5.802C27 102.615 48.156 114.129 69.379 123.634c-.016.787-.05 1.576-.063 2.363-18.91-12.995-42.184-18.181-61.14-31.324zm61.09 35.74c-.02 1.792-.055 3.586-.061 5.377-18.427-13.134-40.962-21.228-60.778-31.947-.09-.049-.176-.06-.263-.082.002-2.277.004-4.56.009-6.838 18.247 14.391 41.536 21.006 61.093 33.49zm-61.105-24.3c19.908 11.609 40.451 23.03 61.07 33.3.007 3.096.01 6.191.069 9.281-17.275-15.029-41.408-20.417-61.05-31.812-.065-3.588-.084-7.178-.089-10.769zm.371 20.709c-.129-2.669-.165-5.338-.226-8.008 19.454 13.142 42.913 19.459 61.147 34.445.088 3.045.151 6.094.303 9.13-7.177-6.963-19.645-11.459-27.82-15.807-6.886-3.662-13.787-7.301-20.613-11.072-2.491-1.377-12.221-5.467-12.788-8.685-.001-.001-.003-.001-.003-.003zm.246 4.224c4.503 5.154 16.964 10.73 19.459 12.164 13.767 7.913 27.702 16.472 41.762 23.762.146 2.371.307 4.738.499 7.103-13.046-7.478-26.073-15.375-38.38-23.961-6.087-4.246-14.773-13.3-22.979-13.956-.149-1.706-.251-3.409-.361-5.112zm1.537 15.99c-.001-.132.036-.248.016-.387-.368-2.51-.649-5.021-.908-7.529 19.462 14.265 40.189 27.678 61.438 39.104.06.642.104 1.287.169 1.929-20.074-11.575-41.601-19.749-60.715-33.117zm60.528-66.38C52.738 65.248 29.286 57.289 7.292 49.086c-.057-3.758-.066-7.508-.028-11.257C24.981 54 49.067 63.198 71.114 72.063c-.091 2.866-.169 5.724-.271 8.593zm.417-13.178C49.593 57.517 26.313 50.845 7.708 35.277c-.122-.102-.251-.166-.381-.211.055-3.044.169-6.091.316-9.14 11.434 8.338 23.643 15.322 36.084 22.069 3.103 1.683 22.356 13.161 27.657 13.339-.051 2.052-.064 4.09-.124 6.144zM58.576 51.28C41.028 44.145 23.378 34.262 7.773 23.465c.154-2.663.347-5.331.593-8.004 9.424 7.264 19.688 13.28 29.918 19.337 11.443 6.774 21.946 14.825 33.198 21.744-.001.025-.001.05-.002.075-3.942-2.477-9.335-3.887-12.904-5.337z"/>
  <path d="M186.672 67.146c.001-.265-.047-.542-.156-.827-2.648-6.908-11.393-11.621-17.345-15.427-7.979-5.102-16.516-9.296-25.331-12.745-1.145-.448-1.922.29-2.141 1.224-1.102.211-2.082.907-2.326 2.146-.893 4.533-.5 9.896.111 14.831-3.729-.728-8.163-.393-10.825-.419-9.845-.096-20.042.211-29.815 1.468-1.29.166-2.022 1.404-1.794 2.425-.041.14-.103.261-.12.422-.484 4.515-.821 9.043-.843 13.586-.013 2.87-.267 6.711 1.239 9.323-.312.253-.656.461-.933.764-.272.3-.281.731 0 1.029 4.491 4.77 13.291 2.335 19.231 1.977 8.359-.505 17.362-.525 25.682-2.127-.439 2.177-.244 4.681-.393 6.783-.227 3.216-.579 6.422-.763 9.644-.204 3.562 4.549 4.038 6.004 1.469.036-.001.062.017.098.015 17.658-1.079 31.463-18.599 40.526-32.122.868-1.296.641-2.549-.106-3.439zm-22.811-11.991c5.979 3.706 11.047 9.07 16.828 12.889-.536.775-1.136 1.575-1.696 2.362-11.289-7.171-21.724-15.591-33.163-22.517.002-1.423-.04-2.831-.189-4.186 5.956 3.996 12.126 7.675 18.22 11.452zm-61.293 25.747c.103-1.621-.149-3.333-.358-4.983 1.374 1.139 2.717 2.315 4.123 3.414.486.38.991.783 1.492 1.181-1.789.018-3.581.087-5.257.388zm13.057-.448c-.892.062-1.86.072-2.859.07-1.279-.798-2.581-1.571-3.791-2.421-2.426-1.706-4.756-3.543-7.068-5.401-.212-3.068-.521-6.133-.835-9.195 5.711 6.068 12.39 11.976 19.356 16.516-1.614.165-3.22.321-4.803.431zm9.301-.914c-.066-.074-.113-.156-.2-.221-7.742-5.911-15.636-11.344-23.14-17.55 2.024.357 4.109.528 6.209.633 3.713 3.412 7.458 6.784 11.317 10.032 2.376 2 5.375 5.018 8.517 6.822-.901.095-1.804.185-2.703.284zm7.644-.724c-.01-.012-.006-.024-.017-.035-2.799-3.077-7.259-5.215-10.62-7.671-3.801-2.777-7.5-5.695-11.193-8.616 1.811.024 3.621-.002 5.412-.036.047.172.129.342.297.499 5.914 5.538 12.161 10.686 18.482 15.748-.786.042-1.57.052-2.361.111zm14.308 18.098c.149-2.632.227-5.931-.099-8.766 2.528 2.018 5.042 4.055 7.533 6.117-2.369 1.166-4.841 2.081-7.434 2.649zm10.773-4.501c-3.705-3.569-7.665-6.812-11.733-9.917.469-1.554-.58-3.564-2.569-3.744-.846-.077-1.712-.06-2.566-.091-7.275-5.302-14.697-10.42-21.571-16.259.988-.021 1.993-.046 2.956-.058 1.717-.022 3.433-.012 5.148.007 9.618 10.466 21.054 19.909 32.095 28.856-.586.404-1.158.834-1.76 1.206zm4.345-3.094c-8.965-10.214-21.072-17.636-31.14-26.888 1.225.035 2.449.057 3.676.116 2.118.101 4.368.81 6.542 1.057 4.943 3.155 9.655 6.604 14.208 10.363 2.534 2.093 4.987 4.29 7.414 6.507 1.485 1.357 2.919 3.208 4.856 3.861-1.77 1.776-3.618 3.457-5.556 4.984zm7.361-6.866c-1.457-4.3-8.836-8.642-12.058-11.102-3.845-2.936-7.915-6.063-12.307-8.417.669-.567 1.057-1.41.708-2.371-.191-.526-.475-.976-.795-1.391.069-.505.13-1.041.197-1.558 3.904 3.839 7.914 7.588 11.91 11.32 3.805 3.553 8.819 9.593 14.105 10.738.338.073.657-.054.919-.248-.872 1.024-1.758 2.042-2.679 3.029zm2.987-4.373c-2.979-4.526-9.089-7.718-13.218-11.257-4.603-3.944-8.995-8.174-13.688-12.014.143-1.361.244-2.741.317-4.119 10.475 7.418 20.229 15.841 30.978 22.863-1.391 1.852-2.85 3.705-4.38 5.515.163-.293.22-.64-.009-.988z"/>
</svg>
