<svg xmlns="http://www.w3.org/2000/svg" viewBox="0 0 297.84 81.68">
  <g>
    <path class="logo-cloud" d="M.94,17.65a17,17,0,0,0,1.4,6.87,17.66,17.66,0,0,0,9.41,9.38,17.3,17.3,0,0,0,7,1.4A17.24,17.24,0,0,0,27.53,33a18.25,18.25,0,0,0,6.25-6l-2.69-2.75a13,13,0,0,1-2.22,2.94A14.66,14.66,0,0,1,22.51,31a13.86,13.86,0,0,1-3.81.53,13.27,13.27,0,0,1-5.41-1.12A14.58,14.58,0,0,1,5.81,23a12.68,12.68,0,0,1-1.12-5.29,13,13,0,0,1,1.12-5.3A14.51,14.51,0,0,1,8.84,8,14.84,14.84,0,0,1,13.32,4.9a13.42,13.42,0,0,1,9.56-.5,14,14,0,0,1,3.67,1.82,15.32,15.32,0,0,1,3,2.75,14.52,14.52,0,0,1,2.16,3.42l3.14-2a18.23,18.23,0,0,0-2.72-4.15A19.18,19.18,0,0,0,28.4,2.91,17.06,17.06,0,0,0,23.86.76a17.93,17.93,0,0,0-12.11.64A18,18,0,0,0,6.12,5.18a17.89,17.89,0,0,0-3.78,5.61,16.91,16.91,0,0,0-1.4,6.86Zm41.3,17.49V.17h3.92V31.61h22.7v3.53ZM75.36,17.71a13,13,0,0,1,1.12-5.3A14.3,14.3,0,0,1,79.5,8,14.89,14.89,0,0,1,84,4.9a13.3,13.3,0,0,1,5.43-1.15A13.1,13.1,0,0,1,94.83,4.9,15,15,0,0,1,99.29,8a14.48,14.48,0,0,1,3,4.45,13,13,0,0,1,1.12,5.3,12.69,12.69,0,0,1-.61,3.92,15.52,15.52,0,0,1-1.69,3.56,13.94,13.94,0,0,1-2.57,3,14.82,14.82,0,0,1-3.25,2.16l2.07,3.14a16.62,16.62,0,0,0,4-2.72,18.47,18.47,0,0,0,3.08-3.7,17.55,17.55,0,0,0,2.69-9.39,17.07,17.07,0,0,0-1.4-6.86A17.89,17.89,0,0,0,102,5.18,18,18,0,0,0,96.32,1.4a18,18,0,0,0-13.9,0,17.81,17.81,0,0,0-5.63,3.78A18.09,18.09,0,0,0,73,10.79a17.07,17.07,0,0,0-1.4,6.86,18,18,0,0,0,.67,4.88A19.47,19.47,0,0,0,74.15,27a16.63,16.63,0,0,0,2.94,3.73A17.44,17.44,0,0,0,81,33.46l2.47-3.09a13.29,13.29,0,0,1-3.28-2.18,15.14,15.14,0,0,1-2.55-3A14.25,14.25,0,0,1,76,21.63a13,13,0,0,1-.59-3.92Zm38.89.05a16.74,16.74,0,0,0,1.4,6.84,17.93,17.93,0,0,0,29,5.58,18,18,0,0,0,3.78-5.58,16.74,16.74,0,0,0,1.4-6.84V.17h-3.92V19.5a13.33,13.33,0,0,1-1.54,4.71,14.24,14.24,0,0,1-3.06,3.84,13.92,13.92,0,0,1-18.49,0,14.92,14.92,0,0,1-3.08-3.84,13,13,0,0,1-1.57-4.71V.17h-3.92V17.76ZM161.6,31.55V3.81h10.7A13,13,0,0,1,177.71,5a14.58,14.58,0,0,1,7.48,7.56,13,13,0,0,1,1.12,5.3,11.66,11.66,0,0,1-1.23,5.27,16.22,16.22,0,0,1-3.19,4.37,14.82,14.82,0,0,1-4.51,3,12.9,12.9,0,0,1-5.13,1.09Zm-3.92,3.59h14.68a16.5,16.5,0,0,0,6.53-1.35,18.67,18.67,0,0,0,9.61-9.22A15.56,15.56,0,0,0,190,17.76a16.73,16.73,0,0,0-1.4-6.83,18.36,18.36,0,0,0-3.78-5.61,17.54,17.54,0,0,0-5.63-3.78A17.8,17.8,0,0,0,172.25.17H157.68v35Z M159.42,48.08V71.6h-5.15V40.49h7.14L172.5,63.2l11.22-22.71H191V71.6H185.8V47.81L172.49,74.3,159.42,48.08Zm-34,22.58V40.49h24.13v4.83h-19V66.77h19V71.6H125.46v-.94Zm23.75-15.27v3.89H133.33V54.46h15.88v.93ZM94,44.38V40.49h26.93v4.83H110V71.6h-5.15V45.32H94v-.94ZM62.68,70.66V66.77H80.44a5.3,5.3,0,0,0,1.88-.3,3,3,0,0,0,1.21-.83h0a4,4,0,0,0,.77-1.33,6.2,6.2,0,0,0,.07-3.3,3.84,3.84,0,0,0-.53-1.18,2.7,2.7,0,0,0-.86-.78,4.34,4.34,0,0,0-1.4-.49l-.77-.15v-4.8h.94a7.48,7.48,0,0,1,1.63.19,7.05,7.05,0,0,1,1.53.57h0a9.11,9.11,0,0,1,1.36.85,8.67,8.67,0,0,1,1.18,1.09,8.12,8.12,0,0,1,1,1.32,9,9,0,0,1,.74,1.53,9.16,9.16,0,0,1,.47,1.67,10,10,0,0,1,.16,1.73,11.69,11.69,0,0,1-.16,1.9,8.94,8.94,0,0,1-.49,1.76,9.6,9.6,0,0,1-.76,1.54,8,8,0,0,1-1,1.31,7.77,7.77,0,0,1-2.6,1.86,7.82,7.82,0,0,1-1.53.5,7.93,7.93,0,0,1-1.61.17h-19v-.94ZM89.34,41.43v3.89H71.58a5.33,5.33,0,0,0-1.88.3,3,3,0,0,0-1.2.82h0a3.82,3.82,0,0,0-.77,1.34,5.25,5.25,0,0,0-.27,1.74,5.75,5.75,0,0,0,.19,1.56,3.87,3.87,0,0,0,.53,1.2,2.68,2.68,0,0,0,.87.8h0a4.34,4.34,0,0,0,1.4.49l.76.15v4.75h-.94a7,7,0,0,1-1.63-.19,7.05,7.05,0,0,1-1.53-.57h0a8.36,8.36,0,0,1-1.36-.85,9.93,9.93,0,0,1-1.18-1.08h0a8.12,8.12,0,0,1-1-1.32A9.63,9.63,0,0,1,62.84,53a9.16,9.16,0,0,1-.47-1.67,10.37,10.37,0,0,1-.15-1.76,11.67,11.67,0,0,1,.15-1.89,9.3,9.3,0,0,1,.47-1.76h0a8.75,8.75,0,0,1,.74-1.54,8.42,8.42,0,0,1,1-1.32A8.06,8.06,0,0,1,65.78,42a8.66,8.66,0,0,1,1.39-.8,7.78,7.78,0,0,1,1.55-.5,8.25,8.25,0,0,1,1.65-.17h19v.94ZM47.46,71.6H43.24v-11L29.78,40.49H36l9.77,14.34,10-14.34h6.18L48.39,60.4V71.6Zm-47-.94V66.77H18.22a5.26,5.26,0,0,0,1.88-.3,2.89,2.89,0,0,0,1.21-.83h0a4,4,0,0,0,.76-1.33,5.32,5.32,0,0,0,.26-1.75A6.05,6.05,0,0,0,22.16,61a3.7,3.7,0,0,0-.54-1.17h0a2.67,2.67,0,0,0-.85-.78,4.49,4.49,0,0,0-1.41-.49l-.76-.15v-4.8h.94a7.46,7.46,0,0,1,1.62.19,6.94,6.94,0,0,1,1.54.57h0a9,9,0,0,1,1.35.85,9.44,9.44,0,0,1,1.19,1.09,8.12,8.12,0,0,1,1,1.32A9.86,9.86,0,0,1,27,59.16a9.84,9.84,0,0,1,.62,3.4,10.67,10.67,0,0,1-.16,1.9,8.94,8.94,0,0,1-.49,1.76,9.6,9.6,0,0,1-.76,1.54h0a8.09,8.09,0,0,1-1,1.31A8.67,8.67,0,0,1,24,70.14a8.61,8.61,0,0,1-1.39.79,8.13,8.13,0,0,1-1.54.5,7.86,7.86,0,0,1-1.61.17H.47v-.94ZM27.13,41.43v3.89H9.37a5.26,5.26,0,0,0-1.88.3,3.06,3.06,0,0,0-1.21.82h0a4,4,0,0,0-.77,1.34,5.26,5.26,0,0,0-.26,1.74,5.75,5.75,0,0,0,.19,1.56h0A4,4,0,0,0,6,52.29H6a2.61,2.61,0,0,0,.85.8,4.43,4.43,0,0,0,1.4.49l.76.15v4.75H8.06a6.91,6.91,0,0,1-1.63-.19,7.13,7.13,0,0,1-1.54-.57h0a8.72,8.72,0,0,1-1.35-.85,9.21,9.21,0,0,1-1.18-1.08h0a8.69,8.69,0,0,1-1-1.32A8.82,8.82,0,0,1,.63,53a8.42,8.42,0,0,1-.47-1.67A9.45,9.45,0,0,1,0,49.53a10.63,10.63,0,0,1,.16-1.89,10.1,10.1,0,0,1,.46-1.76,9.16,9.16,0,0,1,.75-1.54,7.34,7.34,0,0,1,1-1.32A7.6,7.6,0,0,1,3.57,42,8.24,8.24,0,0,1,5,41.16a7.78,7.78,0,0,1,1.55-.5,8.15,8.15,0,0,1,1.64-.17h19v.94Z"/>
    <path class="logo-ltd" fill-rule="evenodd" d="M1.07,81.68V77.6h.82v3.26H6.78v.82Zm32.17,0V77.6h.82v4.08Zm27.28,0V77.6h5.71v4.08h-.82V78.42H63.78v3.26H63V78.42H61.34v3.26Zm32.17,0V77.6h.82v4.08Zm29.73,0V78.42H120V77.6h5.71v.82h-2.45v3.26Zm29.72,0V77.6h5.71v.82H153v.81h4.89v.82H153v.81h4.89v.82Zm32.17-4.08v4.08H189l1-1v-2l-1-1Zm.82.82h3.46l.61.61v1.22l-.61.61h-3.46V78.42Z"/>
    <path class="logo-hq" d="M197.3.17H297.84V17.38Q294,14,286.67,14H265.82q-15.65,0-15.64,15.64V52.22q0,15.63,15.64,15.64H271v3.47h10.43V67.86h5.21q7.27,0,11.17-3.39V81.68H197.3V67h6V46.13h31.28V67H245V14.86H234.54V35.71H203.26V14.86h-6V.17Zm94.58,52.05V29.63q0-5.22-5.21-5.22H265.82q-5.22,0-5.22,5.22V52.22q0,5.2,5.22,5.21H271V51.35h10.43v6.08h5.21q5.2,0,5.21-5.21Z"/>
  </g>
</svg>
